<svg width="50" height="45" viewBox="0 0 50 45" fill="none" xmlns="http://www.w3.org/2000/svg">
<path d="M33.3977 3.98324C36.0019 3.98324 38.1991 4.96241 39.9895 6.92074C42.0077 6.5011 43.8958 5.74924 45.6536 4.66516C44.97 6.90326 43.6679 8.6168 41.7473 9.80579C43.5377 9.59596 45.2467 9.10638 46.8743 8.33704C46.4836 8.9665 46.0523 9.56974 45.5803 10.1467C45.1083 10.7238 44.6038 11.2658 44.0667 11.7729C43.5295 12.2799 42.968 12.7608 42.3821 13.2154C42.4146 13.635 42.4309 14.0372 42.4309 14.4219C42.4309 16.4851 42.1786 18.5658 41.6741 20.664C41.1695 22.7623 40.4371 24.808 39.4768 26.8013C38.5165 28.7946 37.2958 30.648 35.8147 32.3616C34.3336 34.0751 32.6734 35.5789 30.8342 36.8728C28.995 38.1666 26.8791 39.1808 24.4866 39.9152C22.094 40.6495 19.5631 41.0167 16.8938 41.0167C11.9133 41.0167 7.32348 39.6179 3.12426 36.8203C3.48234 36.8553 3.83227 36.8902 4.17407 36.9252C4.51587 36.9602 4.88208 36.9777 5.2727 36.9777C9.43937 36.9777 13.1503 35.6313 16.4055 32.9386C14.4524 32.9036 12.7109 32.2829 11.1809 31.0764C9.65096 29.87 8.59301 28.3225 8.00708 26.4341C8.20239 26.4691 8.38956 26.5041 8.5686 26.539C8.74764 26.574 8.93481 26.6002 9.13012 26.6177C9.32544 26.6352 9.52075 26.644 9.71606 26.644C10.5299 26.644 11.3111 26.5216 12.0598 26.2768C10.009 25.8571 8.30005 24.7905 6.93286 23.077C5.56567 21.3635 4.88208 19.3701 4.88208 17.0971V16.9922C6.15161 17.7265 7.50252 18.1112 8.93481 18.1462C8.12101 17.5867 7.42114 16.9135 6.8352 16.1267C6.24926 15.3398 5.7854 14.4481 5.4436 13.4514C5.1018 12.4548 4.93091 11.4319 4.93091 10.3828C4.93091 9.54351 5.0367 8.72171 5.24829 7.91739C5.45988 7.11308 5.76098 6.36122 6.15161 5.66181C8.3977 8.56434 11.1239 10.8724 14.3303 12.5859C17.5367 14.2995 20.9791 15.2611 24.6575 15.471C24.4947 14.7716 24.4133 14.0547 24.4133 13.3203C24.4133 10.7325 25.2922 8.52937 27.05 6.71092C28.8079 4.89247 30.9237 3.98324 33.3977 3.98324ZM33.3977 0.626099C30.3704 0.626099 27.7174 1.68395 25.4387 3.79965C23.1601 5.91535 21.8254 8.52937 21.4348 11.6417C16.1939 10.5227 11.8971 7.81248 8.54419 3.51114C7.9257 2.70683 7.12817 2.30467 6.15161 2.30467L5.90747 2.35713C4.83325 2.42707 4.01945 2.95162 3.46606 3.93079C2.35929 5.92409 1.80591 8.07476 1.80591 10.3828C1.80591 11.8865 2.05005 13.3378 2.53833 14.7366C2.01749 15.401 1.75708 16.1529 1.75708 16.9922V17.0971C1.75708 20.4193 2.8313 23.3043 4.97973 25.7522C4.91463 26.032 4.89022 26.3205 4.90649 26.6177C4.92277 26.915 4.96346 27.2035 5.02856 27.4832C5.74471 29.7563 6.94913 31.6622 8.64184 33.2009C8.08846 33.3408 7.52693 33.4457 6.95727 33.5156C6.38761 33.5855 5.82609 33.6205 5.2727 33.6205C4.62166 33.6205 4.01945 33.5855 3.46606 33.5156L3.12426 33.4632C2.44067 33.4632 1.83032 33.673 1.29321 34.0926C0.7561 34.5123 0.373613 35.0543 0.145749 35.7187C-0.0821158 36.4531 -0.0739778 37.1962 0.170163 37.9481C0.414304 38.6999 0.845619 39.2682 1.46411 39.6529C6.15161 42.8002 11.2948 44.3739 16.8938 44.3739C20.3443 44.3739 23.5995 43.8231 26.6594 42.7215C29.7193 41.62 32.3723 40.1075 34.6184 38.1841C36.8645 36.2608 38.8095 34.0489 40.4534 31.5485C42.0973 29.0482 43.3505 26.3729 44.2131 23.5229C45.0758 20.6728 45.5234 17.779 45.5559 14.8415C47.0208 13.5476 48.2903 12.0614 49.3645 10.3828C49.5924 10.103 49.7551 9.7883 49.8528 9.4386C49.9504 9.0889 49.9993 8.72171 49.9993 8.33704C49.9993 7.18302 49.5598 6.27379 48.6809 5.60936C48.7786 5.15474 48.8111 4.71762 48.7786 4.29797C48.746 3.87833 48.6321 3.46743 48.4368 3.06527C48.2415 2.66312 47.981 2.32216 47.6555 2.04239C47.0696 1.55281 46.4023 1.30802 45.6536 1.30802C45.5234 1.30802 45.3931 1.31676 45.2629 1.33425C45.1327 1.35173 45.0025 1.37796 44.8723 1.41293C44.7421 1.4479 44.6119 1.49161 44.4817 1.54407C44.3515 1.59652 44.2213 1.65772 44.0911 1.72766C43.082 2.3921 41.9915 2.89916 40.8196 3.24887C38.606 1.50035 36.1321 0.626099 33.3977 0.626099Z" fill="#1DA1F2"/>
</svg>
